Coordinates
version=1
nRows=13
nColumns=18
inDegrees=yes

Units are S.I. units (second, meters, Newtons, ...)
If the header above contains a line with 'inDegrees', this indicates whether rotational values are in degrees (yes) or radians (no).

endheader
time	ground_thorax_rot_x	ground_thorax_rot_y	ground_thorax_rot_z	ground_thorax_tx	ground_thorax_ty	ground_thorax_tz	clav_prot	clav_elev	scapula_abduction	scapula_elevation	scapula_upward_rot	scapula_winging	plane_elv	shoulder_elv	axial_rot	elbow_flexion	pro_sup
      5.90000000	      3.75348449	      0.50148604	     -5.93914923	     -0.00752876	      0.00710486	      0.00335546	    -37.21910659	      0.69656383	    -32.50921148	     -3.57418402	     22.10926882	     -1.34441166	     -1.93418394	     35.55511517	    -13.67273665	      0.00000000	     34.32000000
      5.91000000	      3.71876381	      0.49337709	     -5.90202083	     -0.00759775	      0.00722614	      0.00328760	    -37.34030576	      0.67555508	    -32.52390789	     -3.65571392	     22.35889142	     -1.45159154	     -2.59445798	     34.52131177	    -11.23890359	      0.00000000	     34.32000000
      5.92000000	      3.71580230	      0.39151770	     -5.94720219	     -0.00759549	      0.00720421	      0.00333790	    -37.25795902	      0.77525446	    -32.62800523	     -3.50868615	     22.05980714	     -1.37339816	     -2.72484583	     34.04136369	    -11.24292070	      0.00000000	     34.32000000
      5.93000000	      3.69035350	      0.08333089	     -5.91431427	     -0.00758533	      0.00728452	      0.00340382	    -36.96629169	      0.97606931	    -32.34827281	     -3.30311137	     21.90802999	     -1.27508302	     -3.37962847	     33.30301785	    -10.33147572	      0.00000000	     34.32000000
      5.94000000	      3.76551228	     -0.01959843	     -6.01261434	     -0.00757834	      0.00715956	      0.00355342	    -36.82460182	      1.09004898	    -32.46373487	     -3.10531022	     21.45915909	     -1.13590368	     -3.57832551	     32.79040230	    -10.26559251	      0.00000000	     34.32000000
      5.95000000	      3.78893251	     -0.19208848	     -5.92787112	     -0.00763917	      0.00718522	      0.00364977	    -36.45087361	      0.89787027	    -31.97262328	     -3.16114920	     21.22481761	     -0.86508969	     -5.29052250	     32.21349289	     -7.27899089	      0.00000000	     34.32000000
      5.96000000	      3.90388858	     -0.13618792	     -6.02905816	     -0.00765342	      0.00702325	      0.00389798	    -36.24304968	      0.51396164	    -31.79234006	     -3.32854411	     20.80387961	     -0.55696548	     -6.80729140	     32.14404471	     -6.90991790	      0.00000000	     34.32000000
      5.97000000	      4.00761546	     -0.35998024	     -5.98553752	     -0.00770028	      0.00688786	      0.00419842	    -35.76912752	      0.34581284	    -31.23128713	     -3.32910108	     20.44241545	     -0.22873357	     -8.25752295	     32.10339369	     -6.31644587	      0.00000000	     34.32000000
      5.98000000	      4.11796054	     -0.64768557	     -6.03750385	     -0.00769716	      0.00677284	      0.00447654	    -35.32875580	      0.20960426	    -30.82558156	     -3.27315296	     19.93044351	      0.10960501	     -8.83515346	     32.12777856	     -5.82898513	      0.00000000	     34.32000000
      5.99000000	      4.25563618	     -0.92716187	     -6.07682460	     -0.00768115	      0.00668051	      0.00478754	    -34.87318297	      0.10424937	    -30.27601133	     -3.23894692	     19.61404243	      0.38773846	     -9.62519723	     31.99897339	     -4.22458045	      0.00000000	     34.32000000
      6.00000000	      4.55702294	     -0.82329438	     -6.25249736	     -0.00763925	      0.00640640	      0.00520127	    -34.71002203	      0.12929979	    -30.23169056	     -3.13055525	     19.29339009	      0.52101651	     -9.80083199	     31.96980649	     -4.16973111	      0.00000000	     34.32000000
      6.01000000	      4.47123719	     -0.87784659	     -6.16639508	     -0.00764816	      0.00646293	      0.00517320	    -34.12700333	     -0.08954302	    -29.63412445	     -3.09379203	     18.66281548	      0.94950491	    -11.03119871	     32.22685522	     -3.64003281	      0.00000000	     34.32000000
      6.02000000	      4.65248488	     -0.81537324	     -6.34794718	     -0.00758135	      0.00622656	      0.00522712	    -33.95393007	     -0.06113595	    -29.56917216	     -2.98124282	     18.34447359	      1.08173853	    -11.19904329	     31.95221803	     -3.57053530	      0.00000000	     34.32000000
